<?xml version="1.0" encoding="UTF-8"?>
<svg width="22px" height="17px" viewBox="0 0 22 17" version="1.1" xmlns="http://www.w3.org/2000/svg" xmlns:xlink="http://www.w3.org/1999/xlink">
    <!-- Generator: Sketch 51.2 (57519) - http://www.bohemiancoding.com/sketch -->
    <title>Add to playlist  Button</title>
    <desc>Created with Sketch.</desc>
    <defs></defs>
    <g id="Dark-Theme-(Anonymous-User)" stroke="none" stroke-width="1" fill="none" fill-rule="evenodd">
        <g id="All-Discs-Menu" transform="translate(-1508.000000, -163.000000)" fill="#B9C5D8">
            <g id="Group-6" transform="translate(745.000000, 138.000000)">
                <g id="Group-7" transform="translate(30.000000, 20.000000)">
                    <g id="Add-To-Playlist-Button-Normal" transform="translate(733.000000, 5.000000)">
                        <g id="Combined-Shape">
                            <path d="M8.17247398,10.88 L0.544831599,10.88 C0.244084556,10.88 0,10.4575185 0,9.93555556 C0,9.41422222 0.244084556,8.99111111 0.544831599,8.99111111 L8.17247398,8.99111111 C8.47322103,8.99111111 8.71730558,9.41422222 8.71730558,9.93555556 C8.71730558,10.4575185 8.47322103,10.88 8.17247398,10.88 L8.17247398,10.88 Z M0.786978976,6.38444444 C0.352566581,6.38444444 0,5.96196296 0,5.44 C0,4.91866667 0.352566581,4.49555556 0.786978976,4.49555556 L11.8046846,4.49555556 C12.239097,4.49555556 12.5916636,4.91866667 12.5916636,5.44 C12.5916636,5.96196296 12.239097,6.38444444 11.8046846,6.38444444 L0.786978976,6.38444444 Z M17.1517963,10.9177778 L17.1517963,15.4739838 C17.1517963,15.8749799 16.7202229,16.2004259 16.1884629,16.2004259 C15.6560607,16.2004259 15.2251296,15.8749799 15.2251296,15.4739838 L15.2251296,10.9177778 L11.103368,10.9177778 C10.702372,10.9177778 10.3769259,10.4868467 10.3769259,9.95444444 C10.3769259,9.42268444 10.702372,8.99111111 11.103368,8.99111111 L15.2251296,8.99111111 L15.2251296,5.30379397 C15.2251296,4.90279791 15.6560607,4.57735183 16.1884629,4.57735183 C16.7202229,4.57735183 17.1517963,4.90279791 17.1517963,5.30379397 L17.1517963,8.99111111 L21.2735579,8.99111111 C21.6745539,8.99111111 22,9.42268444 22,9.95444444 C22,10.4868467 21.6745539,10.9177778 21.2735579,10.9177778 L17.1517963,10.9177778 Z M11.8046846,1.88888889 L0.786978976,1.88888889 C0.352566581,1.88888889 0,1.46577778 0,0.944444444 C0,0.423111111 0.352566581,0 0.786978976,0 L11.8046846,0 C12.239097,0 12.5916636,0.423111111 12.5916636,0.944444444 C12.5916636,1.46577778 12.239097,1.88888889 11.8046846,1.88888889 Z"></path>
                        </g>
                    </g>
                </g>
            </g>
        </g>
    </g>
</svg>