<?xml version="1.0" encoding="UTF-8"?>
<svg width="29px" height="28px" viewBox="0 0 29 28" version="1.1" xmlns="http://www.w3.org/2000/svg" xmlns:xlink="http://www.w3.org/1999/xlink">
    <!-- Generator: Sketch 51.2 (57519) - http://www.bohemiancoding.com/sketch -->
    <title>Artist Icon Disabled</title>
    <desc>Created with Sketch.</desc>
    <defs>
        <polygon id="path-1" points="0.263380645 0.0778580645 22.9627097 0.0778580645 22.9627097 19.8707417 0.263380645 19.8707417"></polygon>
    </defs>
    <g id="Artist-Icon-Disabled" stroke="none" stroke-width="1" fill="none" fill-rule="evenodd">
        <g id="Page-1">
            <path d="M8.81530323,0.114258065 C7.17143226,0.642645161 5.9584,1.85567742 5.31259355,3.5383871 C4.37323871,6.06290323 5.09762581,9.50690323 7.15246452,12.1876774 C8.32665806,13.714129 7.99427097,14.6733548 6.07581935,15.3968387 C3.62988387,16.3361935 1.45762581,17.7452258 0.557109677,18.9970968 C-0.0688258065,19.8777419 -0.186245161,21.2867742 0.3024,22.2450968 C0.634787097,22.8909032 2.59207742,23.9278065 3.86381935,24.1238065 L4.66588387,24.2412258 L4.46988387,23.4391613 C3.82407742,20.9345161 5.25298065,19.1732258 9.02936774,17.7641935 C10.0075613,17.3920645 10.2234323,17.1969677 11.0254968,16.0029032 C11.5150452,15.2595484 12.238529,14.4177419 12.6106581,14.1241935 C12.9827871,13.8306452 13.3540129,13.3998065 13.4325935,13.1848387 C13.4913032,12.95 13.8047226,12.4414839 14.098271,12.0693548 C16.7203355,8.70393548 16.9750452,3.9096129 14.646529,1.52148387 C13.6096258,0.464709677 12.630529,0.0736129032 10.8701419,0.0149032258 C10.0093677,-0.0239354839 9.08898065,0.0149032258 8.81530323,0.112451613 L8.81530323,0.114258065 Z" id="Fill-1" fill="#ffffff"></path>
            <g id="Group-5" transform="translate(5.419355, 7.980903)">
                <mask id="mask-2" fill="white">
                    <use xlink:href="#path-1"></use>
                </mask>
                <g id="Clip-4"></g>
                <path d="M21.1640258,0.254890323 C21.2227355,0.35243871 21.0664774,0.392180645 20.8506065,0.333470968 C20.6157677,0.254890323 20.4595097,0.294632258 20.5182194,0.372309677 C20.6744774,0.607148387 19.8724129,1.01811613 19.5201548,0.880825806 C19.3828645,0.822116129 19.2654452,0.860954839 19.3051871,0.959406452 C19.3250581,1.07682581 19.1290581,1.27282581 18.8553806,1.4092129 C18.2881548,1.68289032 18.1120258,2.38740645 18.5031226,2.87695484 C18.7379613,3.19037419 18.7180903,3.19037419 18.3658323,2.87695484 C17.9937032,2.56353548 17.9349935,2.60327742 16.8782194,3.5616 C16.2712516,4.12882581 14.3925419,5.79256774 12.7098323,7.26030968 C10.0678968,9.56895484 9.57925161,9.92211613 9.24596129,9.76495484 C8.63899355,9.43256774 8.67873548,8.61063226 9.38325161,7.71011613 C9.97034839,6.92701935 9.97034839,6.82947097 9.36338065,6.82947097 C8.44389677,6.82947097 7.71950968,7.39669677 6.70157419,8.90418065 C5.82092903,10.1957935 5.56621935,10.4505032 4.60789677,10.8804387 C3.98196129,11.1351484 3.08144516,11.5461161 2.59189677,11.7610839 C1.06544516,12.4267613 0.263380645,13.3850839 0.263380645,14.5394065 C0.263380645,15.3026323 1.22260645,16.9076645 2.37692903,18.0619871 C5.07757419,20.801471 6.97525161,20.4492129 8.67783226,16.8679226 C9.46092903,15.2439226 9.47989677,15.2240516 10.6938323,14.6757935 C12.0441548,14.0498581 12.6700903,13.5016 12.552671,12.9533419 C12.4740903,12.6010839 12.3964129,12.6010839 11.1635097,12.8359226 C10.5962839,12.9533419 9.85202581,12.4836645 9.85202581,12.0139871 C9.85202581,11.8766968 11.1048,10.5850839 12.6502194,9.15708387 C17.9340903,4.18663226 18.5600258,3.59953548 18.8147355,3.24727742 C18.9709935,3.05127742 19.3431226,2.91489032 19.7540903,2.91489032 C20.3411871,2.91489032 20.5173161,2.79747097 21.0655742,2.01437419 C21.4964129,1.40740645 21.7899613,1.1536 22.0248,1.21230968 C22.200929,1.27101935 22.5143484,1.19243871 22.7094452,1.05605161 C23.2965419,0.625212903 22.8069935,0.0778580645 21.8288,0.0778580645 C21.3979613,0.0778580645 21.0854452,0.15643871 21.1631226,0.253987097 L21.1640258,0.254890323 Z" id="Fill-3" fill="#ffffff" mask="url(#mask-2)"></path>
            </g>
            <path d="M18.8147355,18.4116258 L18.1888,19.0574323 L18.6783484,19.3898194 C18.9520258,19.5659484 19.2455742,19.9967871 19.3440258,20.3490452 C19.7161548,21.6993677 18.8743484,22.932271 16.936929,23.8318839 C16.2911226,24.1254323 15.8602839,24.3801419 15.9587355,24.3801419 C16.5069935,24.4000129 18.7370581,23.7542065 19.5788645,23.3233677 C20.7142194,22.7561419 21.1441548,22.0516258 21.1441548,20.7789806 C21.1441548,19.7420774 20.8307355,19.056529 20.028671,18.2933032 L19.4614452,17.7450452 L18.8156387,18.4107226 L18.8147355,18.4116258 Z" id="Fill-6" fill="#ffffff"></path>
        </g>
    </g>
</svg>