<?xml version="1.0" encoding="UTF-8"?>
<svg width="16px" height="14px" viewBox="0 0 16 14" version="1.1" xmlns="http://www.w3.org/2000/svg" xmlns:xlink="http://www.w3.org/1999/xlink">
    <!-- Generator: Sketch 51.2 (57519) - http://www.bohemiancoding.com/sketch -->
    <title>Arrow Right Icon</title>
    <desc>Created with Sketch.</desc>
    <defs></defs>
    <g id="Symbols" stroke="none" stroke-width="1" fill="none" fill-rule="evenodd">
        <g id="Next-button" transform="translate(-69.000000, -18.000000)" fill="#ffffff">
            <g id="Next">
                <g id="Arrow-Right-Icon" transform="translate(69.000000, 18.000000)">
                    <path d="M0.999996754,7.99990472 L12.5786258,7.99990472 L8.30530637,12.2719899 C7.90997432,12.6675163 7.90997432,13.3084958 8.30530637,13.7033552 C8.70063842,14.0988816 9.34130301,14.0988816 9.73730173,13.7033552 L15.7052824,7.73644279 C15.9079484,7.53367715 16.0052814,7.26688026 15.9999481,7.00075037 L15.9999481,6.99941638 L15.9999481,6.99874939 C16.0052814,6.73328649 15.9079484,6.4658226 15.7052824,6.26305697 L9.73730173,0.296144547 C9.34130301,-0.0987148489 8.70063842,-0.0987148489 8.30530637,0.296144547 C7.90997432,0.691670935 7.90997432,1.33265046 8.30530637,1.72750986 L12.5786258,6.00026203 L0.999996754,6.00026203 C0.447998546,6.00026203 0,6.44781381 0,6.99941638 C0,7.55168594 0.447998546,7.99990472 0.999996754,7.99990472 L0.999996754,7.99990472 Z"></path>
                </g>
            </g>
        </g>
    </g>
</svg>