<?xml version="1.0" encoding="UTF-8"?>
<svg width="16px" height="14px" viewBox="0 0 16 14" version="1.1" xmlns="http://www.w3.org/2000/svg" xmlns:xlink="http://www.w3.org/1999/xlink">
    <!-- Generator: Sketch 51.2 (57519) - http://www.bohemiancoding.com/sketch -->
    <title>Arrow Left Icon</title>
    <desc>Created with Sketch.</desc>
    <defs></defs>
    <g id="Symbols" stroke="none" stroke-width="1" fill="none" fill-rule="evenodd">
        <g id="Prev-button" transform="translate(-15.000000, -18.000000)" fill="#ffffff">
            <g id="Prev">
                <g id="Arrow-Left-Icon" transform="translate(15.000000, 18.000000)">
                    <path d="M15.0072796,7.99990472 L3.4230339,7.99990472 L7.69842629,12.2719899 C8.09395011,12.6675163 8.09395011,13.3078288 7.69842629,13.7033552 C7.30290247,14.0988816 6.6619271,14.0988816 6.26640328,13.7033552 L0.294860685,7.73644279 C0.0920963656,7.53367715 -0.00528386666,7.26688026 5.20364751e-05,7.00075037 L5.20364751e-05,7.00008337 L5.20364751e-05,6.99941638 C-0.00528386666,6.73328649 0.0920963656,6.4658226 0.294860685,6.26305697 L6.26640328,0.296144547 C6.6619271,-0.0987148489 7.30290247,-0.0987148489 7.69842629,0.296144547 C8.09395011,0.691670935 8.09395011,1.33265046 7.69842629,1.72750986 L3.4230339,6.00026203 L15.0072796,6.00026203 C15.5602126,6.00026203 16.0077615,6.44781381 16.0077615,7.00008337 C16.0077615,7.55168594 15.5602126,7.99990472 15.0072796,7.99990472 L15.0072796,7.99990472 Z"></path>
                </g>
            </g>
        </g>
    </g>
</svg>