<?xml version="1.0" encoding="utf-8"?>
<!-- Generator: Adobe Illustrator 18.1.1, SVG Export Plug-In . SVG Version: 6.00 Build 0)  -->
<svg version="1.1" xmlns="http://www.w3.org/2000/svg" xmlns:xlink="http://www.w3.org/1999/xlink" x="0px" y="0px"
	 viewBox="-467 269 24 24" enable-background="new -467 269 24 24" xml:space="preserve">
<g id="Layer_1" fill="#ddd">
	<path d="M-447,272h-16.7c-1,0-1.9,0.8-1.9,1.9V285c0,1,0.8,1.9,1.9,1.9h4.6v1.9h7.4v-1.9h4.6c1,0,1.8-0.8,1.8-1.9l0-11.2
		C-445.1,272.8-446,272-447,272z M-447,285h-16.7v-11.2h16.7V285z"/>
	<path fill="none" d="M-467,269h24v24h-24V269z"/>
</g>
<g id="Layer_3" display="none">
	<path display="inline" d="M-455.2,275c-2.5,0-4.5,2-4.5,4.5s2,4.5,4.5,4.5s4.5-2,4.5-4.5S-452.7,275-455.2,275z M-452.9,280h-1.8
		v1.8h-0.9V280h-1.8v-0.9h1.8v-1.8h0.9v1.8h1.8V280z"/>
</g>
<g id="Layer_4" display="none">
	<path display="inline" d="M-451.4,280.2h-3.4v3.4h-1.1v-3.4h-3.4V279h3.4v-3.4h1.1v3.4h3.4V280.2z"/>
</g>
<g id="Layer_2" fill="#ddd">
	<path d="M-457.3,276.9l-7-7l-1.1,1l5.5,5.5l1.1,1.1l1.5,1.5l3.4,3.4l7.6,7.6l1.1-1.1L-457.3,276.9z"/>
</g>
</svg>
