<?xml version="1.0" encoding="UTF-8"?>
<svg width="31px" height="28px" viewBox="0 0 31 28" version="1.1" xmlns="http://www.w3.org/2000/svg" xmlns:xlink="http://www.w3.org/1999/xlink">
    <!-- Generator: Sketch 51.2 (57519) - http://www.bohemiancoding.com/sketch -->
    <title>Clips Icon Disabled</title>
    <desc>Created with Sketch.</desc>
    <defs></defs>
    <g id="Clips-Icon-Disabled" stroke="none" stroke-width="1" fill="none" fill-rule="evenodd">
        <path d="M0,28 L30.5448471,28 L30.5448471,0 L0,0 L0,28 Z M25.4551529,5.09064876 L28.0009546,5.09064876 L28.0009546,2.5448471 L25.4551529,2.5448471 L25.4551529,5.09064876 Z M7.63645041,12.7270992 L22.9093512,12.7270992 L22.9093512,2.5448471 L7.63645041,2.5448471 L7.63645041,12.7270992 Z M2.54580166,5.09064876 L5.09255787,5.09064876 L5.09255787,2.5448471 L2.54580166,2.5448471 L2.54580166,5.09064876 Z M25.4551529,10.1812975 L28.0009546,10.1812975 L28.0009546,7.6345413 L25.4551529,7.6345413 L25.4551529,10.1812975 Z M2.54580166,10.1812975 L5.09255787,10.1812975 L5.09255787,7.6345413 L2.54580166,7.6345413 L2.54580166,10.1812975 Z M25.4551529,15.2729008 L28.0009546,15.2729008 L28.0009546,12.7270992 L25.4551529,12.7270992 L25.4551529,15.2729008 Z M2.54580166,15.2729008 L5.09255787,15.2729008 L5.09255787,12.7270992 L2.54580166,12.7270992 L2.54580166,15.2729008 Z M7.63645041,25.4541983 L22.9093512,25.4541983 L22.9093512,15.2719463 L7.63645041,15.2719463 L7.63645041,25.4541983 Z M25.4551529,20.3635496 L28.0009546,20.3635496 L28.0009546,17.8177479 L25.4551529,17.8177479 L25.4551529,20.3635496 Z M2.54580166,20.3635496 L5.09255787,20.3635496 L5.09255787,17.8177479 L2.54580166,17.8177479 L2.54580166,20.3635496 Z M25.4551529,25.4541983 L28.0009546,25.4541983 L28.0009546,22.9083967 L25.4551529,22.9083967 L25.4551529,25.4541983 Z M2.54580166,25.4541983 L5.09255787,25.4541983 L5.09255787,22.9083967 L2.54580166,22.9083967 L2.54580166,25.4541983 Z" id="Page-1" fill="#ffffff"></path>
    </g>
</svg>