<svg xmlns="http://www.w3.org/2000/svg" width="18" height="16" viewBox="0 0 18 16">
    <path fill="#B9C5D8" fill-rule="evenodd" d="M0 16h18V0H0v16zM15 2.909h1.5V1.454H15V2.91zM4.5 7.273h9V1.454h-9v5.819zm-3-4.364h1.501V1.454h-1.5V2.91zM15 5.818h1.5V4.363H15v1.455zm-13.5 0h1.501V4.363h-1.5v1.455zM15 8.728h1.5V7.272H15v1.454zm-13.5 0h1.501V7.272h-1.5v1.454zm3 5.817h9V8.727h-9v5.818zM15 11.636h1.5v-1.454H15v1.454zm-13.5 0h1.501v-1.454h-1.5v1.454zm13.5 2.91h1.5V13.09H15v1.454zm-13.5 0h1.501V13.09h-1.5v1.454z"/>
</svg>
