<?xml version="1.0" encoding="UTF-8"?>
<svg width="21px" height="15px" viewBox="0 0 21 15" version="1.1" xmlns="http://www.w3.org/2000/svg" xmlns:xlink="http://www.w3.org/1999/xlink">
    <!-- Generator: Sketch 51.2 (57519) - http://www.bohemiancoding.com/sketch -->
    <title>Curate This Artist Normal</title>
    <desc>Created with Sketch.</desc>
    <defs></defs>
    <g id="Dark-Theme-(Anonymous-User)" stroke="none" stroke-width="1" fill="none" fill-rule="evenodd">
        <g id="(55)-Show-page" transform="translate(-1328.000000, -96.000000)" fill="#B9C5D8">
            <g id="Curate-This-Artist-Normal" transform="translate(1328.000000, 96.000000)">
                <g id="graduation-student-cap">
                    <path d="M4.77684375,7.59717391 L4.77684375,12.4663043 C4.77684375,12.4663043 6.55265625,11.853913 8.2884375,12.4486957 C10.0242187,13.0434783 12.9556875,14.7978261 12.9556875,14.7978261 C12.9556875,14.7978261 13.8527813,13.3480435 14.9008125,12.6782609 C15.9481875,12.0084783 16.755375,11.4952174 16.755375,11.4952174 L16.755375,7.73086957 L13.5233437,10.5671739 L4.77684375,7.59717391 Z" id="Shape" fill-rule="nonzero"></path>
                    <polygon id="Shape" fill-rule="nonzero" points="2.34478125 6.31369565 13.4124375 9.84 20.4553125 3.59152174 9.0024375 0.313043478 0 5.56695652 1.428 6.02086957 1.428 10.0147826 0.79340625 10.0147826 0.79340625 12.6769565 3.01415625 12.6769565 3.01415625 10.0147826 2.34478125 10.0147826"></polygon>
                </g>
            </g>
        </g>
    </g>
</svg>