<?xml version="1.0" encoding="UTF-8"?>
<svg width="24px" height="17px" viewBox="0 0 24 17" version="1.1" xmlns="http://www.w3.org/2000/svg" xmlns:xlink="http://www.w3.org/1999/xlink">
    <!-- Generator: Sketch 51.2 (57519) - http://www.bohemiancoding.com/sketch -->
    <title>Curate This Artist</title>
    <desc>Created with Sketch.</desc>
    <defs></defs>
    <g id="Dark-Theme-(Anonymous-User)" stroke="none" stroke-width="1" fill="none" fill-rule="evenodd">
        <g id="(60)-Curate-Show" transform="translate(-426.000000, -158.000000)" fill="#FFFFFF">
            <g id="Group-6" transform="translate(411.000000, 138.000000)">
                <g id="Curate-This-Artist" transform="translate(15.000000, 20.000000)">
                    <g id="Curate-This-Artist-White">
                        <g id="graduation-student-cap">
                            <path d="M5.45925,8.61013043 L5.45925,14.1284783 C5.45925,14.1284783 7.48875,13.4344348 9.4725,14.1085217 C11.45625,14.7826087 14.8065,16.7708696 14.8065,16.7708696 C14.8065,16.7708696 15.83175,15.1277826 17.0295,14.3686957 C18.2265,13.6096087 19.149,13.027913 19.149,13.027913 L19.149,8.76165217 L15.45525,11.9761304 L5.45925,8.61013043 Z" id="Shape" fill-rule="nonzero"></path>
                            <polygon id="Shape" fill-rule="nonzero" points="2.67975 7.15552174 15.3285 11.152 23.3775 4.0703913 10.2885 0.354782609 0 6.30921739 1.632 6.82365217 1.632 11.350087 0.90675 11.350087 0.90675 14.3672174 3.44475 14.3672174 3.44475 11.350087 2.67975 11.350087"></polygon>
                        </g>
                    </g>
                </g>
            </g>
        </g>
    </g>
</svg>