<svg xmlns="http://www.w3.org/2000/svg" width="20" height="13" viewBox="0 0 20 13">
    <path fill="#B9C5D8" fill-rule="evenodd" d="M14.375 4.952H17.5V2.476h-3.125v2.476zm1.25 2.477h2.5V5.57h-2.5V7.43zm-1.25 3.095H17.5V8.667h-3.125v1.857zm-10 0h8.75V8.667h-8.75v1.857zm-1.875 0h1.25V8.667H2.5v1.857zm0-3.095H5V5.57H2.5V7.43zm0-2.477h1.25V2.476H2.5v2.476zM5.625 7.43h2.5V5.57h-2.5V7.43zm-1.25-2.477h2.5V2.476h-2.5v2.476zM8.75 7.43h2.5V5.57h-2.5V7.43zM7.5 4.952H10V2.476H7.5v2.476zm5 2.477H15V5.57h-2.5V7.43zm-1.25-2.477h2.5V2.476h-2.5v2.476zM18.889 0H1.11C.5 0 0 .487 0 1.083v10.834C0 12.512.5 13 1.111 13H18.89C19.5 13 20 12.512 20 11.917V1.083C20 .488 19.5 0 18.889 0z"/>
</svg>
