<svg width="206px" height="42px" viewBox="0 0 206 42" version="1.1" xmlns="http://www.w3.org/2000/svg" xmlns:xlink="http://www.w3.org/1999/xlink">
  <title>loading...</title>
  <desc>Created with Sketch.</desc>
  <defs>
    <lineargradient id="linearGradient-1" x1="100%" y1="50%" x2="0%" y2="50%">
      <stop stop-color="#CA3058" offset="0%"></stop>
      <stop stop-color="#FF9A48" offset="100%"></stop>
    </lineargradient>
  </defs>
  <g id="Dark-Theme-(Anonymous-User)" stroke="none" stroke-width="1" fill="none" fill-rule="evenodd">
    <g id="(73)-My-account---Local-media-(#3-Save,-Now-Match)" transform="translate(-446.000000, -362.000000)">
      <g id="Group-5" transform="translate(411.000000, 138.000000)">
        <g id="loading..." transform="translate(35.000000, 224.000000)">
          <path id="Weekends" d="M189,14.4980991 C189,13.6707218 189.665797,13 190.5,13 C191.328427,13 192,13.6741559 192,14.4980991 L192,40.5019009 C192,41.3292782 191.334203,42 190.5,42 C189.671573,42 189,41.3258441 189,40.5019009 L189,14.4980991 Z M182,23.5032506 C182,22.6730282 182.665797,22 183.5,22 C184.328427,22 185,22.6654358 185,23.5032506 L185,40.4967494 C185,41.3269718 184.334203,42 183.5,42 C182.671573,42 182,41.3345642 182,40.4967494 L182,23.5032506 Z M140,6.49626982 C140,5.66990282 140.665797,5 141.5,5 C142.328427,5 143,5.67378907 143,6.49626982 L143,40.5037302 C143,41.3300972 142.334203,42 141.5,42 C140.671573,42 140,41.3262109 140,40.5037302 L140,6.49626982 Z M133,17.4912569 C133,16.6676585 133.665797,16 134.5,16 C135.328427,16 136,16.6688281 136,17.4912569 L136,40.5087431 C136,41.3323415 135.334203,42 134.5,42 C133.671573,42 133,41.3311719 133,40.5087431 L133,17.4912569 Z M91,17.4912569 C91,16.6676585 91.6657972,16 92.5,16 C93.3284271,16 94,16.6688281 94,17.4912569 L94,40.5087431 C94,41.3323415 93.3342028,42 92.5,42 C91.6715729,42 91,41.3311719 91,40.5087431 L91,17.4912569 Z M84,7.50104195 C84,6.67203937 84.6657972,6 85.5,6 C86.3284271,6 87,6.67120383 87,7.50104195 L87,40.4989581 C87,41.3279606 86.3342028,42 85.5,42 C84.6715729,42 84,41.3287962 84,40.4989581 L84,7.50104195 Z M42,17.4912569 C42,16.6676585 42.6657972,16 43.5,16 C44.3284271,16 45,16.6688281 45,17.4912569 L45,40.5087431 C45,41.3323415 44.3342028,42 43.5,42 C42.6715729,42 42,41.3311719 42,40.5087431 L42,17.4912569 Z M35,27.5052412 C35,26.6739194 35.6657972,26 36.5,26 C37.3284271,26 38,26.6671298 38,27.5052412 L38,40.4947588 C38,41.3260806 37.3342028,42 36.5,42 C35.6715729,42 35,41.3328702 35,40.4947588 L35,27.5052412 Z"
          fill="#FFFFFF"></path>
          <path id="Workdays" d="M203,17.4912569 C203,16.6676585 203.665797,16 204.5,16 C205.328427,16 206,16.6688281 206,17.4912569 L206,40.5087431 C206,41.3323415 205.334203,42 204.5,42 C203.671573,42 203,41.3311719 203,40.5087431 L203,17.4912569 Z M196,7.50104195 C196,6.67203937 196.665797,6 197.5,6 C198.328427,6 199,6.67120383 199,7.50104195 L199,40.4989581 C199,41.3279606 198.334203,42 197.5,42 C196.671573,42 196,41.3287962 196,40.4989581 L196,7.50104195 Z M175,19.5013075 C175,18.6721583 175.665797,18 176.5,18 C177.328427,18 178,18.6669463 178,19.5013075 L178,40.4986925 C178,41.3278417 177.334203,42 176.5,42 C175.671573,42 175,41.3330537 175,40.4986925 L175,19.5013075 Z M168,12.4951944 C168,11.6694214 168.665797,11 169.5,11 C170.328427,11 171,11.6763089 171,12.4951944 L171,40.5048056 C171,41.3305786 170.334203,42 169.5,42 C168.671573,42 168,41.3236911 168,40.5048056 L168,12.4951944 Z M161,17.4912569 C161,16.6676585 161.665797,16 162.5,16 C163.328427,16 164,16.6688281 164,17.4912569 L164,40.5087431 C164,41.3323415 163.334203,42 162.5,42 C161.671573,42 161,41.3311719 161,40.5087431 L161,17.4912569 Z M154,1.49480224 C154,0.669245757 154.665797,0 155.5,0 C156.328427,0 157,0.676731136 157,1.49480224 L157,40.5051978 C157,41.3307542 156.334203,42 155.5,42 C154.671573,42 154,41.3232689 154,40.5051978 L154,1.49480224 Z M147,13.5082641 C147,12.6752728 147.665797,12 148.5,12 C149.328427,12 150,12.6686549 150,13.5082641 L150,40.4917359 C150,41.3247272 149.334203,42 148.5,42 C147.671573,42 147,41.3313451 147,40.4917359 L147,13.5082641 Z M126,26.5086366 C126,25.6754396 126.665797,25 127.5,25 C128.328427,25 129,25.6664201 129,26.5086366 L129,40.4913634 C129,41.3245604 128.334203,42 127.5,42 C126.671573,42 126,41.3335799 126,40.4913634 L126,26.5086366 Z M119,16.4900965 C119,15.6671389 119.665797,15 120.5,15 C121.328427,15 122,15.6674194 122,16.4900965 L122,40.5099035 C122,41.3328611 121.334203,42 120.5,42 C119.671573,42 119,41.3325806 119,40.5099035 L119,16.4900965 Z M112,17.4912569 C112,16.6676585 112.665797,16 113.5,16 C114.328427,16 115,16.6688281 115,17.4912569 L115,40.5087431 C115,41.3323415 114.334203,42 113.5,42 C112.671573,42 112,41.3311719 112,40.5087431 L112,17.4912569 Z M105,8.50390625 C105,7.67332176 105.665797,7 106.5,7 C107.328427,7 108,7.66791832 108,8.50390625 L108,40.4960938 C108,41.3266782 107.334203,42 106.5,42 C105.671573,42 105,41.3320817 105,40.4960938 L105,8.50390625 Z M98,5.50134919 C98,4.67217693 98.6657972,4 99.5,4 C100.328427,4 101,4.67568885 101,5.50134919 L101,40.4986508 C101,41.3278231 100.334203,42 99.5,42 C98.6715729,42 98,41.3243111 98,40.4986508 L98,5.50134919 Z M77,7.50104195 C77,6.67203937 77.6657972,6 78.5,6 C79.3284271,6 80,6.67120383 80,7.50104195 L80,40.4989581 C80,41.3279606 79.3342028,42 78.5,42 C77.6715729,42 77,41.3287962 77,40.4989581 L77,7.50104195 Z M70,17.4912569 C70,16.6676585 70.6657972,16 71.5,16 C72.3284271,16 73,16.6688281 73,17.4912569 L73,40.5087431 C73,41.3323415 72.3342028,42 71.5,42 C70.6715729,42 70,41.3311719 70,40.5087431 L70,17.4912569 Z M63,20.5090942 C63,19.6756445 63.6657972,19 64.5,19 C65.3284271,19 66,19.6635408 66,20.5090942 L66,40.4909058 C66,41.3243555 65.3342028,42 64.5,42 C63.6715729,42 63,41.3364592 63,40.4909058 L63,20.5090942 Z M56,7.50104195 C56,6.67203937 56.6657972,6 57.5,6 C58.3284271,6 59,6.67120383 59,7.50104195 L59,40.4989581 C59,41.3279606 58.3342028,42 57.5,42 C56.6715729,42 56,41.3287962 56,40.4989581 L56,7.50104195 Z M49,5.50134919 C49,4.67217693 49.6657972,4 50.5,4 C51.3284271,4 52,4.67568885 52,5.50134919 L52,40.4986508 C52,41.3278231 51.3342028,42 50.5,42 C49.6715729,42 49,41.3243111 49,40.4986508 L49,5.50134919 Z M28,10.5036925 C28,9.67322607 28.6657972,9 29.5,9 C30.3284271,9 31,9.67414133 31,10.5036925 L31,40.4963075 C31,41.3267739 30.3342028,42 29.5,42 C28.6715729,42 28,41.3258587 28,40.4963075 L28,10.5036925 Z M21,17.4912569 C21,16.6676585 21.6657972,16 22.5,16 C23.3284271,16 24,16.6688281 24,17.4912569 L24,40.5087431 C24,41.3323415 23.3342028,42 22.5,42 C21.6715729,42 21,41.3311719 21,40.5087431 L21,17.4912569 Z M14,10.5036925 C14,9.67322607 14.6657972,9 15.5,9 C16.3284271,9 17,9.67414133 17,10.5036925 L17,40.4963075 C17,41.3267739 16.3342028,42 15.5,42 C14.6715729,42 14,41.3258587 14,40.4963075 L14,10.5036925 Z M7,1.49480224 C7,0.669245757 7.66579723,0 8.5,0 C9.32842712,0 10,0.676731136 10,1.49480224 L10,40.5051978 C10,41.3307542 9.33420277,42 8.5,42 C7.67157288,42 7,41.3232689 7,40.5051978 L7,1.49480224 Z M0,17.4912569 C0,16.6676585 0.665797234,16 1.5,16 C2.32842712,16 3,16.6688281 3,17.4912569 L3,40.5087431 C3,41.3323415 2.33420277,42 1.5,42 C0.671572875,42 0,41.3311719 0,40.5087431 L0,17.4912569 Z"
          fill="url(#linearGradient-1)"></path>
        </g>
      </g>
    </g>
  </g>
</svg>