<?xml version="1.0" encoding="utf-8"?>
<!-- Svg Vector Icons : http://www.onlinewebfonts.com/icon -->
<!DOCTYPE svg PUBLIC "-//W3C//DTD SVG 1.1//EN" "http://www.w3.org/Graphics/SVG/1.1/DTD/svg11.dtd">
<svg version="1.1" xmlns="http://www.w3.org/2000/svg" xmlns:xlink="http://www.w3.org/1999/xlink" x="0px" y="0px" viewBox="0 0 1000 1000" enable-background="new 0 0 1000 1000" xml:space="preserve">
<metadata> Svg Vector Icons : http://www.onlinewebfonts.com/icon </metadata>
<g fill="#fff"><g transform="translate(0.000000,512.000000) scale(0.100000,-0.100000)"><path fill="#8493A8" d="M4621,5016.4c-1005.8-103.5-1825.8-415.7-2590.3-986.7c-241.4-180.1-762.5-701.2-942.6-942.6C568.9,2389.8,250.9,1613.8,124.4,726.8c-32.6-226.1-32.6-980.9,0-1207c126.5-889,446.4-1672.6,965.6-2360.4c180.1-239.5,546-618.8,795.1-823.8c986.7-812.3,2285.6-1214.7,3540.5-1097.8C6563.7-4655,7581-4187.5,8403-3392.4c852.6,827.7,1366,1896.7,1477.1,3084.6C9997,947.1,9594.6,2246.1,8782.3,3232.8c-779.8,946.5-1862.2,1557.6-3098,1747.3C5490.8,5008.8,4789.6,5033.7,4621,5016.4z M3189.8,2345.7c178.2-109.2,187.8-394.7,17.3-507.7c-78.5-51.7-166.7-69-245.2-47.9C2617,1884,2672.5,2384,3028.9,2384C3092.1,2384,3147.7,2370.6,3189.8,2345.7z M7094.4,2353.4c95.8-46,147.5-130.3,157.1-254.8c7.7-126.5-38.3-212.7-149.4-277.8c-67.1-40.2-88.1-40.2-1618.9-40.2c-1726.2,0-1620.8-7.7-1718.5,128.4c-61.3,88.1-63.2,266.3-1.9,352.5c92,128.4,5.7,122.6,1716.6,122.6C6870.3,2384,7035,2380.2,7094.4,2353.4z M3163,391.5c109.2-53.6,151.3-120.7,160.9-249.1c7.7-136-36.4-222.2-149.4-281.6c-212.7-113-444.5,26.8-444.5,264.4c1.9,122.6,55.6,212.7,162.9,264.4C2994.4,439.4,3065.3,441.3,3163,391.5z M7115.5,380c187.8-139.9,187.8-373.6,0-513.4c-53.6-40.3-65.1-40.3-1609.3-46c-1400.5-3.8-1563.3-1.9-1638.1,26.8c-235.7,88.1-245.2,440.6-15.3,546c74.7,34.5,151.3,36.4,1643.8,30.7C7050.3,420.2,7061.8,420.2,7115.5,380z M3184.1-1580c92-51.7,143.7-145.6,143.7-258.6c0-180.1-118.8-298.9-298.9-298.9c-170.5,0-298.9,126.5-298.9,295C2730-1601,2973.3-1461.2,3184.1-1580z M7102.1-1574.2c195.4-114.9,206.9-390.8,21.1-517.3l-69-46H5487c-1707,0-1628.5-5.7-1716.6,107.3c-134.1,170.5-63.2,404.2,145.6,479c59.4,21.1,339.1,24.9,1595.9,21.1C7010.1-1534,7036.9-1534,7102.1-1574.2z"/></g></g>
</svg>