<?xml version="1.0" encoding="UTF-8"?>
<svg width="16px" height="16px" viewBox="0 0 16 16" version="1.1" xmlns="http://www.w3.org/2000/svg" xmlns:xlink="http://www.w3.org/1999/xlink">
    <!-- Generator: Sketch 51.2 (57519) - http://www.bohemiancoding.com/sketch -->
    <title>Redo Button</title>
    <desc>Created with Sketch.</desc>
    <defs></defs>
    <g id="Symbols" stroke="none" stroke-width="1" fill="none" fill-rule="evenodd">
        <g id="Top-Buttons" transform="translate(-383.000000, 0.000000)" fill="#B9C5D8">
            <g id="Redo-Button" transform="translate(383.000000, 0.000000)">
                <g id="Redo-Button-Normal">
                    <path d="M15.738,6 L13.6513333,6 L9.97333333,6 L12.228,3.75533333 C11.1446667,2.67266667 9.65333333,2 8,2 C4.686,2 2,4.68666667 2,8 C2,11.314 4.686,14 8,14 C10.394,14 12.4546667,12.594 13.4173333,10.566 C13.4173333,10.566 13.5853333,10 14.3333333,10 C14.8853333,10 15.3333333,10.448 15.3333333,11 C15.3333333,11.1906667 15.266,11.3586667 15.1733333,11.51 C13.872,14.1646667 11.156,16 8,16 C3.582,16 0,12.4186667 0,8 C0,3.582 3.582,0 8,0 C10.2073333,0 12.198,0.9 13.6426667,2.34666667 L16,0 L16,6 L15.738,6 L15.738,6 Z" id="Redo-Icon"></path>
                </g>
            </g>
        </g>
    </g>
</svg>