<?xml version="1.0" encoding="UTF-8"?>
<svg width="29px" height="29px" viewBox="0 0 29 29" version="1.1" xmlns="http://www.w3.org/2000/svg" xmlns:xlink="http://www.w3.org/1999/xlink">
    <!-- Generator: Sketch 51.2 (57519) - http://www.bohemiancoding.com/sketch -->
    <title>Show Icon Disabled</title>
    <desc>Created with Sketch.</desc>
    <defs>
        <polygon id="path-1" points="0 0.853646342 28.7911355 0.853646342 28.7911355 27.0967742 0 27.0967742"></polygon>
    </defs>
    <g id="Show-Icon-Disabled" stroke="none" stroke-width="1" fill="none" fill-rule="evenodd">
        <g id="Page-1">
            <g id="Group-3" transform="translate(0.000000, 0.049768)">
                <mask id="mask-2" fill="white">
                    <use xlink:href="#path-1"></use>
                </mask>
                <g id="Clip-2"></g>
                <path d="M24.4655871,8.86082581 C25.1321677,9.0532129 25.933329,9.6619871 26.3063613,10.2608258 L26.645071,10.8145032 L26.6793935,16.7306323 C26.7019742,22.5564387 26.7019742,22.6467613 26.4644258,23.1995355 C26.1817161,23.8543742 25.6515226,24.3628903 24.8494581,24.7350194 L24.2741032,25.0059871 L4.51603871,25.0059871 L3.93978065,24.7350194 C3.13771613,24.3619871 2.60752258,23.8543742 2.3248129,23.1995355 C2.08726452,22.6458581 2.08726452,22.5564387 2.11074839,16.729729 L2.14507097,10.8136 L2.48378065,10.2599226 C2.84507097,9.68456774 3.65797419,9.05140645 4.27849032,8.87166452 C4.78700645,8.72534194 23.9344903,8.7136 24.4655871,8.86082581 Z M9.08816774,1.07050323 C8.96442581,1.19424516 8.86236129,1.33063226 8.86236129,1.37489032 C8.86236129,1.61243871 9.47203871,2.32327742 11.3913935,4.34469677 L13.4688129,6.54676129 L1.45590968,6.65966452 L0.993458065,6.96495484 C0.745070968,7.13476129 0.418103226,7.46172903 0.270877419,7.69927742 L-9.03225806e-05,8.12830968 L-9.03225806e-05,16.8787613 C-9.03225806e-05,25.493729 -9.03225806e-05,25.6400516 0.225716129,26.0239226 C0.3612,26.2388903 0.677329032,26.5658581 0.948296774,26.7582452 L1.43423226,27.0969548 L27.3568129,27.0969548 L27.8427484,26.7582452 C28.1137161,26.5667613 28.4298452,26.2388903 28.565329,26.0239226 C28.7911355,25.6400516 28.7911355,25.493729 28.7911355,16.8787613 L28.7911355,8.12830968 L28.5201677,7.69927742 C28.3729419,7.46263226 28.0459742,7.13476129 27.7975871,6.96495484 L27.3351355,6.65966452 L15.2996516,6.59192258 L17.5577161,4.2092129 C18.7996516,2.88869677 19.8501032,1.69101935 19.8943613,1.54469677 C19.9846839,1.17166452 19.6008129,0.788696774 19.2169419,0.889858065 C19.0471355,0.924180645 18.0535871,1.89514839 16.6987484,3.32856774 C15.4676516,4.63824516 14.4406839,5.68779355 14.3955226,5.67695484 C14.3621032,5.65437419 13.3459742,4.60392258 12.1374581,3.32856774 C10.9406839,2.05230968 9.90197419,0.980180645 9.83423226,0.935019355 C9.61926452,0.787793548 9.31487742,0.844696774 9.08907097,1.07050323 L9.08816774,1.07050323 Z" id="Fill-1" fill="#ffffff" mask="url(#mask-2)"></path>
            </g>
            <path d="M15.016129,13.9912387 L15.5463226,15.5718839 L17.2290323,15.5718839 C18.1548387,15.5718839 18.9117419,15.6062065 18.9,15.6504645 C18.9,15.7073677 18.2903226,16.1806581 17.556,16.7234968 L16.2237419,17.6944645 L16.7205161,19.252529 C16.9914839,20.1105935 17.1829677,20.8331742 17.1612903,20.8557548 C17.1396129,20.8783355 16.5181935,20.4718839 15.7956129,19.9416903 L14.4750968,18.9707226 L14.1255484,19.2191097 C13.9331613,19.3428516 13.3018065,19.8062065 12.7372903,20.2244 C12.1619355,20.6534323 11.6877419,20.9587226 11.6877419,20.9126581 C11.6877419,20.8783355 11.9243871,20.1331742 12.2070968,19.264271 C12.4898065,18.4062065 12.703871,17.6836258 12.6812903,17.6610452 C12.6587097,17.6502065 12.0372903,17.1868516 11.2930323,16.6340774 L9.93819355,15.6287871 L13.4273548,15.5158839 L13.924129,13.9578194 C14.1833548,13.1105935 14.4326452,12.4105935 14.4543226,12.4105935 C14.476,12.4105935 14.7252903,13.1214323 15.0188387,13.9912387 L15.016129,13.9912387 Z M4.75277419,11.7440129 C4.71935484,11.9364 4.68503226,12.8504645 4.68503226,13.776271 L4.68503226,15.4472387 L5.012,15.6387226 C5.91522581,16.1689161 5.92696774,17.4451742 5.012,17.964529 L4.68503226,18.1560129 L4.68503226,19.9624645 C4.68503226,20.9560129 4.71845161,21.8366581 4.75277419,21.9387226 C4.82051613,22.0967871 5.78064516,22.1193677 14.4516129,22.1193677 C23.1225806,22.1193677 24.0827097,22.0967871 24.1504516,21.9387226 C24.1847742,21.8366581 24.2181935,20.9334323 24.2181935,19.9173032 C24.2181935,18.2011742 24.2073548,18.0656903 24.0032258,17.9979484 C23.8903226,17.9636258 23.6536774,17.8064645 23.4947097,17.6366581 C22.9645161,17.1064645 23.1785806,15.9774323 23.8785806,15.6604 L24.2172903,15.5131742 L24.2172903,13.6733032 C24.2172903,12.6237548 24.172129,11.7313677 24.1043871,11.6076258 C23.9914839,11.3926581 23.7548387,11.3926581 14.4055484,11.3926581 L4.83135484,11.3926581 L4.75187097,11.7422065 L4.75277419,11.7440129 Z" id="Fill-4" fill="#ffffff"></path>
        </g>
    </g>
</svg>