<?xml version="1.0" encoding="UTF-8"?>
<svg width="39px" height="36px" viewBox="0 0 39 36" version="1.1" xmlns="http://www.w3.org/2000/svg" xmlns:xlink="http://www.w3.org/1999/xlink">
    <!-- Generator: Sketch 51.2 (57519) - http://www.bohemiancoding.com/sketch -->
    <title>Show Icon</title>
    <desc>Created with Sketch.</desc>
    <defs>
        <polygon id="path-1" points="0 1.14800715 38.7191132 1.14800715 38.7191132 36.4404894 0 36.4404894"></polygon>
    </defs>
    <g id="Dark-Theme-(Anonymous-User)" stroke="none" stroke-width="1" fill="none" fill-rule="evenodd">
        <g id="(63)-Track-Show" transform="translate(-941.000000, -227.000000)">
            <g id="Group-6" transform="translate(411.000000, 138.000000)">
                <g id="Group" transform="translate(395.000000, 88.000000)">
                    <g id="Show-Icon" transform="translate(135.000000, 0.000000)">
                        <g id="Page-1-Copy">
                            <g id="Group-3" transform="translate(0.000000, 0.066929)">
                                <mask id="mask-2" fill="white">
                                    <use xlink:href="#path-1"></use>
                                </mask>
                                <g id="Clip-2"></g>
                                <path d="M32.9019964,11.916283 C33.7984325,12.1750105 34.8758563,12.9937068 35.3775204,13.7990416 L35.8330265,14.5436423 L35.8791844,22.4998158 C35.9095515,30.334521 35.9095515,30.4559893 35.5900899,31.1993753 C35.2098941,32.0800205 34.4968752,32.763887 33.4182367,33.2643364 L32.6444836,33.6287413 L6.07329344,33.6287413 L5.2983257,33.2643364 C4.21968721,32.7626723 3.5066683,32.0800205 3.12647253,31.1993753 C2.8070109,30.4547746 2.8070109,30.334521 2.83859266,22.4986011 L2.88475061,14.5424276 L3.34025673,13.7978269 C3.82612992,13.0240739 4.91934461,12.1725811 5.75383181,11.9308592 C6.43769833,11.7340805 32.1877628,11.7182897 32.9019964,11.916283 Z M12.2220187,1.43964227 C12.0556071,1.60605384 11.9183479,1.78947097 11.9183479,1.84899043 C11.9183479,2.16845206 12.738259,3.12440756 15.3194603,5.84286808 L18.1132311,8.80426518 L1.9579475,8.95610056 L1.33602981,9.3666634 C1.00199199,9.5950238 0.562276752,10.034739 0.364283426,10.3542007 L-0.000121468298,10.9311751 L-0.000121468298,22.6990238 C-0.000121468298,34.2846701 -0.000121468298,34.4814487 0.303549277,34.997689 C0.485751724,35.2867835 0.910890768,35.7264988 1.27529566,35.9852263 L1.92879511,36.4407324 L36.7901967,36.4407324 L37.4436961,35.9852263 C37.808101,35.7277135 38.23324,35.2867835 38.4154425,34.997689 C38.7191132,34.4814487 38.7191132,34.2846701 38.7191132,22.6990238 L38.7191132,10.9311751 L38.3547083,10.3542007 C38.156715,10.0359537 37.7169998,9.5950238 37.382962,9.3666634 L36.7610443,8.95610056 L20.5753935,8.86499933 L23.612101,5.66066563 C25.2822901,3.88479911 26.6949664,2.27412948 26.7544859,2.07735083 C26.8759542,1.57568676 26.3597139,1.06066118 25.8434736,1.19670567 C25.6151132,1.24286363 24.278962,2.54864783 22.4569375,4.47634972 C20.8013246,6.23764004 19.42023,7.64910167 19.3594959,7.63452547 C19.3145526,7.6041584 17.9480343,6.19148209 16.3227884,4.47634972 C14.7133335,2.76000267 13.3164481,1.31817397 13.2253468,1.25743982 C12.9362523,1.0594465 12.5269041,1.13597152 12.2232334,1.43964227 L12.2220187,1.43964227 Z" id="Fill-1" fill="#FFFFFF" mask="url(#mask-2)"></path>
                            </g>
                            <path d="M20.1941046,18.8158038 L20.9071235,20.941499 L23.1700779,20.941499 C24.4151279,20.941499 25.4330323,20.987657 25.4172414,21.0471764 C25.4172414,21.1237014 24.5973304,21.7601953 23.6097931,22.4902198 L21.8181357,23.796004 L22.4862113,25.8913321 C22.8506162,27.045281 23.108129,28.0170274 23.0789766,28.0473944 C23.0498242,28.0777615 22.2141224,27.5311542 21.242376,26.8181353 L19.4665095,25.5123511 L18.9964271,25.8463889 C18.7376997,26.0128004 17.8886363,26.6359328 17.1294594,27.198331 C16.3557063,27.7753055 15.7179978,28.1858683 15.7179978,28.1239195 C15.7179978,28.0777615 16.0362447,27.0756481 16.4164405,25.907123 C16.7966363,24.7531742 17.0845161,23.7814278 17.0541491,23.7510607 C17.023782,23.7364845 16.1880801,23.1133522 15.1871813,22.3699662 L13.3651568,21.018024 L18.0574772,20.8661887 L18.7255528,18.7708605 C19.0741669,17.6314879 19.4094194,16.6901086 19.4385717,16.6901086 C19.4677241,16.6901086 19.8029766,17.6460641 20.1977486,18.8158038 L20.1941046,18.8158038 Z M6.39166185,15.7936725 C6.34671858,16.0524 6.30056062,17.2816592 6.30056062,18.5267092 L6.30056062,20.7738727 L6.74027586,21.0313855 C7.95495884,21.7444044 7.97074972,23.4607515 6.74027586,24.1591942 L6.30056062,24.416707 L6.30056062,26.846073 C6.30056062,28.1822242 6.34550389,29.3665402 6.39166185,29.5037993 C6.48276307,29.7163689 7.77397108,29.7467359 19.4349277,29.7467359 C31.0958843,29.7467359 32.3870923,29.7163689 32.4781935,29.5037993 C32.5243515,29.3665402 32.5692948,28.1518572 32.5692948,26.7853388 C32.5692948,24.4774412 32.5547186,24.2952387 32.2802002,24.2041375 C32.1283648,24.1579795 31.8101179,23.9466247 31.5963337,23.7182643 C30.8833148,23.0052454 31.1711947,21.4868917 32.112574,21.0605379 L32.5680801,20.8625446 L32.5680801,18.3882354 C32.5680801,16.9767737 32.5073459,15.776667 32.4162447,15.6102554 C32.2644093,15.3211608 31.9461624,15.3211608 19.3729789,15.3211608 L6.49733927,15.3211608 L6.39044716,15.7912432 L6.39166185,15.7936725 Z" id="Fill-4" fill="#FFFFFF"></path>
                        </g>
                    </g>
                </g>
            </g>
        </g>
    </g>
</svg>