<?xml version="1.0" encoding="UTF-8"?>
<svg width="16px" height="15px" viewBox="0 0 16 15" version="1.1" xmlns="http://www.w3.org/2000/svg" xmlns:xlink="http://www.w3.org/1999/xlink">
    <!-- Generator: Sketch 51.2 (57519) - http://www.bohemiancoding.com/sketch -->
    <title>Star Icon</title>
    <desc>Created with Sketch.</desc>
    <defs></defs>
    <g id="Dark-Theme-(Anonymous-User)" stroke="none" stroke-width="1" fill="none" fill-rule="evenodd">
        <g id="(32)-Clip-page" transform="translate(-1426.000000, -265.000000)" fill="#FF9948">
            <g id="stars" transform="translate(1426.000000, 265.000000)">
                <g id="Star-Icon">
                    <path d="M8,-1.13686838e-13 C8.19072766,-1.13686838e-13 8.35221969,0.112534375 8.41556354,0.287815189 L10.1014847,4.98220369 C10.1634363,5.1547564 10.3186636,5.26524469 10.5052147,5.26933685 L15.5699389,5.39687581 C15.7599705,5.40164999 15.9179821,5.51623045 15.9771494,5.69355734 C16.0363168,5.86952018 15.9785416,6.05298532 15.8274909,6.16688374 L11.8006314,9.20326579 C11.6537572,9.31443611 11.5952859,9.49108097 11.6474924,9.66499774 L13.0904794,14.4473677 C13.144078,14.6260586 13.0800381,14.8081597 12.9255069,14.9172839 C12.7709758,15.0257261 12.5739833,15.0277722 12.4173639,14.9220581 L8.25059108,12.0998324 C8.096756,11.9961644 7.903244,11.9961644 7.74940892,12.0998324 L3.5826361,14.9220581 C3.42601667,15.0277722 3.22902424,15.0257261 3.07449307,14.9172839 C2.91996191,14.8081597 2.85592196,14.6260586 2.90952061,14.4473677 L4.35250759,9.66499774 C4.40471406,9.49108097 4.34624281,9.31443611 4.19936859,9.20326579 L0.172509129,6.16688374 C0.0214583941,6.05298532 -0.036316772,5.86952018 0.0228505667,5.69355734 C0.0820179055,5.51623045 0.240029504,5.40164999 0.430061074,5.39687581 L5.49478527,5.26933685 C5.68133641,5.26524469 5.83656366,5.1547564 5.89851535,4.98220369 L7.58443646,0.287815189 C7.64778031,0.112534375 7.80927234,-1.13686838e-13 8,-1.13686838e-13 Z"></path>
                </g>
            </g>
        </g>
    </g>
</svg>