<?xml version="1.0" encoding="UTF-8"?>
<svg width="13px" height="13px" viewBox="0 0 13 13" version="1.1" xmlns="http://www.w3.org/2000/svg" xmlns:xlink="http://www.w3.org/1999/xlink">
    <!-- Generator: Sketch 51.2 (57519) - http://www.bohemiancoding.com/sketch -->
    <title>Track This Artist icon</title>
    <desc>Created with Sketch.</desc>
    <defs></defs>
    <g id="Dark-Theme-(Anonymous-User)" stroke="none" stroke-width="1" fill="none" fill-rule="evenodd">
        <g id="(63)-Track-Show" transform="translate(-426.000000, -160.000000)" fill="#FFFFFF">
            <g id="Group-6" transform="translate(411.000000, 138.000000)">
                <g id="Track-This-Artist-icon" transform="translate(15.000000, 22.000000)">
                    <g id="Track-This-Artist-Button-Normal">
                        <path d="M10.3578163,9.77467347 C10.9027551,10.6326735 11.1595714,11.0882041 11.1595714,11.5633673 C11.1595714,12.5017551 10.4626122,12.9567551 9.52369388,12.9567551 C9.10981633,12.9567551 8.84265306,12.9562245 8.16744898,12.6049592 C8.16744898,12.6049592 7.72995918,12.2046122 6.70614286,12.2457347 C5.67277551,12.2048776 5.23502041,12.61 5.23502041,12.61 C4.55981633,12.961 4.30220408,12.9572857 3.88885714,12.9572857 C2.94993878,12.9572857 2.25244898,12.5028163 2.25244898,11.563898 C2.25244898,11.0887347 2.51006122,10.6337347 3.05473469,9.77520408 C3.05473469,9.77520408 4.08438776,8.06530612 4.97661224,7.26089796 C5.62130612,6.68040816 6.56128571,6.68253061 6.56128571,6.68253061 L6.85126531,6.68253061 L6.85126531,6.68226531 C6.85126531,6.68226531 7.83236735,6.67987755 8.43673469,7.26089796 C9.30136735,8.0944898 10.3578163,9.77493878 10.3578163,9.77467347 Z M4.41230612,5.53906122 C5.39393878,5.53906122 6.18959184,4.29902041 6.18959184,2.76953061 C6.18959184,1.24004082 5.39393878,0 4.41230612,0 C3.43067347,0 2.63502041,1.24004082 2.63502041,2.76953061 C2.63502041,4.29902041 3.43067347,5.53906122 4.41230612,5.53906122 Z M2.70904082,8.22130612 C3.43253061,7.88728571 3.59755102,6.70295918 3.07728571,5.57593878 C2.55702041,4.44891837 1.54885714,3.80581633 0.825367347,4.13957143 C0.101877551,4.47332653 -0.062877551,5.65791837 0.457122449,6.78493878 C0.977387755,7.91195918 1.98555102,8.55479592 2.70904082,8.22130612 Z M8.54444898,5.53906122 C9.52608163,5.53906122 10.322,4.29902041 10.322,2.76953061 C10.322,1.24004082 9.52608163,0 8.54444898,0 C7.56281633,0 6.76716327,1.24004082 6.76716327,2.76953061 C6.76716327,4.29902041 7.56281633,5.53906122 8.54444898,5.53906122 Z M12.1316531,4.13930612 C11.407898,3.80528571 10.4,4.44838776 9.87973469,5.57567347 C9.35946939,6.70295918 9.5244898,7.88728571 10.2482449,8.22130612 C10.972,8.55506122 11.979898,7.91195918 12.5001633,6.78493878 C13.0204286,5.65791837 12.8554082,4.47332653 12.1316531,4.13930612 Z" id="Shape" fill-rule="nonzero"></path>
                    </g>
                </g>
            </g>
        </g>
    </g>
</svg>