<svg xmlns="http://www.w3.org/2000/svg" width="18" height="18" viewBox="0 0 18 18">
    <path fill="#B9C5D8" fill-rule="nonzero" d="M14.342 13.534c.754 1.188 1.11 1.819 1.11 2.477 0 1.3-.965 1.93-2.265 1.93-.573 0-.943-.002-1.878-.488 0 0-.606-.554-2.024-.497-1.43-.057-2.037.504-2.037.504-.934.486-1.291.48-1.863.48-1.3 0-2.266-.628-2.266-1.928 0-.658.356-1.288 1.11-2.477 0 0 1.426-2.368 2.662-3.481.892-.804 2.194-.801 2.194-.801h.401s1.359-.004 2.196.8c1.197 1.155 2.66 3.482 2.66 3.481zM6.109 7.67c1.36 0 2.461-1.717 2.461-3.834C8.57 1.717 7.47 0 6.11 0 4.75 0 3.647 1.717 3.647 3.835c0 2.117 1.102 3.834 2.461 3.834zm-2.358 3.714c1.002-.462 1.23-2.102.51-3.662C3.54 6.16 2.145 5.27 1.143 5.73.14 6.195-.087 7.835.633 9.396c.72 1.56 2.116 2.45 3.118 1.988zm8.08-3.714c1.359 0 2.461-1.717 2.461-3.834C14.292 1.717 13.19 0 11.831 0 10.47 0 9.37 1.717 9.37 3.835c0 2.117 1.102 3.834 2.46 3.834zm4.967-1.938c-1.002-.462-2.398.428-3.118 1.99-.72 1.56-.492 3.2.51 3.662 1.002.462 2.398-.428 3.118-1.988.72-1.561.492-3.201-.51-3.664z"/>
</svg>
