<svg xmlns="http://www.w3.org/2000/svg" width="20" height="19" viewBox="0 0 20 19">
    <g fill="none" fill-rule="evenodd">
        <path fill="#B9C5D8" d="M2.375 16.625H20V19H0V0h2.375v16.625zM18.462 5.542c-.85 0-1.539-.71-1.539-1.584 0-.874.689-1.583 1.539-1.583S20 3.084 20 3.958c0 .875-.689 1.584-1.538 1.584zm-9.231-1c-.85 0-1.539-.71-1.539-1.584 0-.874.69-1.583 1.539-1.583.85 0 1.538.709 1.538 1.583 0 .875-.689 1.584-1.538 1.584zm-4.616 8.916c-.85 0-1.538-.709-1.538-1.583s.689-1.583 1.538-1.583c.85 0 1.539.709 1.539 1.583s-.689 1.583-1.539 1.583zm8.462.792c-.85 0-1.539-.709-1.539-1.583 0-.875.69-1.584 1.539-1.584.85 0 1.538.71 1.538 1.584 0 .874-.688 1.583-1.538 1.583z"/>
        <path stroke="#B9C5D8" stroke-width="2" d="M4.615 12.053L9.19 3.958l4.17 8.095 5.102-8.095"/>
    </g>
</svg>
