<?xml version="1.0" encoding="UTF-8"?>
<svg width="24px" height="17px" viewBox="0 0 24 17" version="1.1" xmlns="http://www.w3.org/2000/svg" xmlns:xlink="http://www.w3.org/1999/xlink">
    <!-- Generator: Sketch 51.2 (57519) - http://www.bohemiancoding.com/sketch -->
    <title>Curate This Artist</title>
    <desc>Created with Sketch.</desc>
    <defs></defs>
    <g id="Dark-Theme-(Anonymous-User)" stroke="none" stroke-width="1" fill="none" fill-rule="evenodd">
        <g id="(62)-Show-Vitals" transform="translate(-426.000000, -158.000000)">
            <g id="Group-6" transform="translate(411.000000, 138.000000)">
                <g id="Vitals-icon" transform="translate(15.000000, 20.000000)">
                    <g id="vitals">
                        <path d="M0.3625,14.875 L0.3625,-2.81781377 L2.4875,-2.81781377 L2.4875,14.875 L24,14.875 L24,17 L2.4875,17 L2.4875,19.3360324 L0.3625,19.3360324 L0.3625,17 L-3.73034936e-14,17 L-3.73034936e-14,14.875 L0.3625,14.875 Z M22.1538462,4.95833333 C21.1342435,4.95833333 20.3076923,4.32407006 20.3076923,3.54166667 C20.3076923,2.75926327 21.1342435,2.125 22.1538462,2.125 C23.1734488,2.125 24,2.75926327 24,3.54166667 C24,4.32407006 23.1734488,4.95833333 22.1538462,4.95833333 Z M11.0769231,4.06359649 C10.0573205,4.06359649 9.23076923,3.42933322 9.23076923,2.64692982 C9.23076923,1.86452643 10.0573205,1.23026316 11.0769231,1.23026316 C12.0965257,1.23026316 12.9230769,1.86452643 12.9230769,2.64692982 C12.9230769,3.42933322 12.0965257,4.06359649 11.0769231,4.06359649 Z M5.53846154,12.0416667 C4.51885892,12.0416667 3.69230769,11.4074034 3.69230769,10.625 C3.69230769,9.8425966 4.51885892,9.20833333 5.53846154,9.20833333 C6.55806415,9.20833333 7.38461538,9.8425966 7.38461538,10.625 C7.38461538,11.4074034 6.55806415,12.0416667 5.53846154,12.0416667 Z M15.6923077,12.75 C14.6727051,12.75 13.8461538,12.1157367 13.8461538,11.3333333 C13.8461538,10.5509299 14.6727051,9.91666667 15.6923077,9.91666667 C16.7119103,9.91666667 17.5384615,10.5509299 17.5384615,11.3333333 C17.5384615,12.1157367 16.7119103,12.75 15.6923077,12.75 Z" id="Combined-Shape" fill="#FFFFFF"></path>
                        <path d="M5.53846154,10.7841968 C5.53846154,10.7841968 7.3684633,8.37002008 11.0284668,3.54166667 L16.0319689,10.7841968 L22.1538462,3.54166667" id="Path-2" stroke="#FFFFFF" stroke-width="2"></path>
                    </g>
                </g>
            </g>
        </g>
    </g>
</svg>