<?xml version="1.0" encoding="UTF-8"?>
<svg width="21px" height="13px" viewBox="0 0 21 13" version="1.1" xmlns="http://www.w3.org/2000/svg" xmlns:xlink="http://www.w3.org/1999/xlink">
    <!-- Generator: Sketch 51.2 (57519) - http://www.bohemiancoding.com/sketch -->
    <title>Wikipedia Button</title>
    <desc>Created with Sketch.</desc>
    <defs>
        <polygon id="path-1" points="0 0 20.8413333 0 20.8413333 12.9998556 0 12.9998556"></polygon>
    </defs>
    <g id="Dark-Theme-(Anonymous-User)" stroke="none" stroke-width="1" fill="none" fill-rule="evenodd">
        <g id="(61)-Wikipedia-Expert" transform="translate(-416.000000, -190.000000)">
            <g id="Group-6" transform="translate(401.000000, 168.000000)">
                <g id="Wikipedia-Button" transform="translate(15.000000, 22.000000)">
                    <g id="Page-1">
                        <mask id="mask-2" fill="white">
                            <use xlink:href="#path-1"></use>
                        </mask>
                        <g id="Clip-2"></g>
                        <g id="Wikipedia-Button-White" mask="url(#mask-2)" fill="#FFFFFF">
                            <path d="M20.8413333,0.215077778 C20.8413333,0.2873 20.8178667,0.355188889 20.7724,0.418744444 C20.7269333,0.477966667 20.6756,0.509744444 20.6169333,0.509744444 C20.1578667,0.554522222 19.7824,0.698966667 19.4934667,0.943077778 C19.2001333,1.18718889 18.9024,1.66096667 18.5944,2.35141111 L13.8644,12.8554111 C13.8321333,12.9550778 13.7456,12.9998556 13.6033333,12.9998556 C13.4933333,12.9998556 13.4068,12.9507444 13.3422667,12.8554111 L10.6890667,7.39396667 L7.63693333,12.8554111 C7.5724,12.9550778 7.49026667,12.9998556 7.37586667,12.9998556 C7.238,12.9998556 7.15146667,12.9507444 7.106,12.8554111 L2.46253333,2.35574444 C2.1736,1.70574444 1.86706667,1.2493 1.54586667,0.992188889 C1.22466667,0.735077778 0.775866667,0.571855556 0.2024,0.514077778 C0.152533333,0.514077778 0.1056,0.486633333 0.0645333333,0.437522222 C0.0190666667,0.388411111 0,0.329188889 0,0.2613 C0,0.0894111111 0.0498666667,0.00418888889 0.146666667,0.00418888889 C0.5588,0.00418888889 0.9944,0.0229666667 1.44906667,0.0590777778 C1.87146667,0.0951888889 2.26453333,0.113966667 2.6356,0.113966667 C3.01106667,0.113966667 3.46133333,0.0951888889 3.97466667,0.0590777778 C4.51146667,0.0229666667 4.98813333,0.00418888889 5.40466667,0.00418888889 C5.50586667,0.00418888889 5.55133333,0.0894111111 5.55133333,0.2613 C5.55133333,0.433188889 5.51906667,0.514077778 5.45893333,0.514077778 C5.0468,0.545855556 4.7168,0.649855556 4.47773333,0.826077778 C4.23866667,1.0023 4.11986667,1.23196667 4.11986667,1.52085556 C4.11986667,1.6653 4.16973333,1.85018889 4.26653333,2.06685556 L8.10333333,10.6064111 L10.2842667,6.5533 L8.2544,2.36007778 C7.88773333,1.61041111 7.59,1.12796667 7.3568,0.9113 C7.1236,0.694633333 6.76573333,0.563188889 6.28906667,0.514077778 C6.2436,0.514077778 6.20693333,0.486633333 6.16586667,0.437522222 C6.1248,0.388411111 6.10573333,0.329188889 6.10573333,0.2613 C6.10573333,0.0894111111 6.1468,0.00418888889 6.2348,0.00418888889 C6.64693333,0.00418888889 7.02826667,0.0229666667 7.37586667,0.0590777778 C7.71026667,0.0951888889 8.06373333,0.113966667 8.4436,0.113966667 C8.81466667,0.113966667 9.2048,0.0951888889 9.62133333,0.0590777778 C10.0481333,0.0229666667 10.4690667,0.00418888889 10.8812,0.00418888889 C10.9824,0.00418888889 11.0278667,0.0894111111 11.0278667,0.2613 C11.0278667,0.433188889 11,0.514077778 10.9354667,0.514077778 C10.1053333,0.568966667 9.6932,0.802966667 9.6932,1.20885556 C9.6932,1.38941111 9.79,1.67396667 9.98213333,2.05818889 L11.3256,4.74341111 L12.6632,2.28785556 C12.8465333,1.93974444 12.9433333,1.64652222 12.9433333,1.41252222 C12.9433333,0.852077778 12.5312,0.554522222 11.7010667,0.518411111 C11.6277333,0.518411111 11.5910667,0.433188889 11.5910667,0.265633333 C11.5910667,0.202077778 11.6086667,0.148633333 11.6453333,0.0937444444 C11.682,0.0388555556 11.7186667,0.0128555556 11.7553333,0.0128555556 C12.0530667,0.0128555556 12.4153333,0.0316333333 12.8509333,0.0677444444 C13.2630667,0.103855556 13.6077333,0.122633333 13.8732,0.122633333 C14.0653333,0.122633333 14.3454667,0.103855556 14.7165333,0.0778555556 C15.1844,0.0374111111 15.5789333,0.0143 15.8942667,0.0143 C15.9676,0.0143 16.0042667,0.0865222222 16.0042667,0.230966667 C16.0042667,0.424522222 15.9353333,0.524188889 15.8033333,0.524188889 C15.3222667,0.5733 14.9321333,0.704744444 14.6388,0.917077778 C14.3454667,1.12941111 13.9788,1.61185556 13.5388,2.37018889 L11.7465333,5.60141111 L14.1577333,10.4403 L17.7188,2.28352222 C17.842,1.98596667 17.9021333,1.71007778 17.9021333,1.46163333 C17.9021333,0.866522222 17.49,0.550188889 16.6598667,0.509744444 C16.5865333,0.509744444 16.5498667,0.424522222 16.5498667,0.256966667 C16.5498667,0.0850777778 16.6041333,-0.000144444444 16.7156,-0.000144444444 C17.0177333,-0.000144444444 17.3756,0.0186333333 17.7921333,0.0547444444 C18.1764,0.0908555556 18.4976,0.109633333 18.7542667,0.109633333 C19.03,0.109633333 19.3409333,0.0908555556 19.6988,0.0547444444 C20.0698667,0.0186333333 20.4042667,-0.000144444444 20.702,-0.000144444444 C20.7944,-0.000144444444 20.8398667,0.0720777778 20.8398667,0.216522222 L20.8413333,0.215077778 Z" id="Fill-1"></path>
                        </g>
                    </g>
                </g>
            </g>
        </g>
    </g>
</svg>