<svg xmlns="http://www.w3.org/2000/svg" width="21" height="13" viewBox="0 0 21 13">
    <path fill="#B9C5D8" fill-rule="evenodd" d="M20.841.215c0 .072-.023.14-.069.204-.045.059-.096.09-.155.09-.46.046-.835.19-1.124.434-.293.244-.59.718-.899 1.408l-4.73 10.504c-.032.1-.118.145-.26.145a.301.301 0 0 1-.262-.145L10.69 7.394l-3.052 5.461a.287.287 0 0 1-.261.145c-.138 0-.225-.05-.27-.145l-4.643-10.5c-.29-.65-.596-1.106-.917-1.363C1.225.735.776.572.202.514.152.514.106.487.065.438A.248.248 0 0 1 0 .26C0 .09.05.004.147.004c.412 0 .847.019 1.302.055.422.036.816.055 1.187.055.375 0 .825-.019 1.339-.055a21.608 21.608 0 0 1 1.43-.055c.1 0 .146.085.146.257S5.52.514 5.46.514c-.412.032-.742.136-.981.312a.82.82 0 0 0-.358.695c0 .144.05.33.147.546l3.836 8.54 2.181-4.054-2.03-4.193c-.366-.75-.664-1.232-.897-1.449C7.124.695 6.766.563 6.289.514c-.045 0-.082-.027-.123-.076a.266.266 0 0 1-.06-.177c0-.172.04-.257.129-.257.412 0 .793.019 1.14.055.335.036.689.055 1.069.055.37 0 .76-.019 1.177-.055.427-.036.848-.055 1.26-.055.101 0 .147.085.147.257s-.028.253-.093.253c-.83.055-1.242.289-1.242.695 0 .18.097.465.29.85l1.343 2.684 1.337-2.455c.184-.348.28-.641.28-.875 0-.56-.412-.858-1.242-.895-.073 0-.11-.085-.11-.252 0-.064.018-.117.054-.172.037-.055.074-.081.11-.081.298 0 .66.019 1.096.055.412.036.757.055 1.022.055.192 0 .472-.02.844-.045.467-.04.862-.064 1.177-.064.074 0 .11.073.11.217 0 .194-.069.293-.2.293-.482.05-.872.18-1.165.393-.294.212-.66.695-1.1 1.453l-1.792 3.231 2.41 4.84 3.562-8.157c.123-.298.183-.574.183-.822 0-.595-.412-.912-1.242-.952-.073 0-.11-.085-.11-.253 0-.172.054-.257.166-.257.302 0 .66.019 1.076.055.384.036.706.055.962.055.276 0 .587-.02.945-.055.37-.036.705-.055 1.003-.055.092 0 .138.072.138.217l.001-.002z"/>
</svg>
