
<svg width="107px" height="20px" viewBox="0 0 107 20" version="1.1" xmlns="http://www.w3.org/2000/svg" xmlns:xlink="http://www.w3.org/1999/xlink">
    <g id="Symbols" stroke="none" stroke-width="1" fill="none" fill-rule="evenodd">
        <g id="Logo-Light-theme" transform="translate(1.000000, 1.000000)" fill-rule="nonzero" stroke-width="0.49">
            <g id="Logo-2">
                <path d="M3.17876712,18.0957407 L0,18.0957407 L0,0 L4.45890411,0 C8.02243151,0 9.85273973,1.4812963 9.85273973,5.34111111 C9.85273973,8.25092593 8.6984589,9.42962963 7.62328767,9.91518519 L10.3166096,18.1168519 L7.08030822,18.1168519 L4.81849315,10.5942593 C4.27383593,10.6501562 3.72639407,10.6759996 3.17876712,10.6716667 L3.17876712,18.0957407 Z M3.17876712,8.1137037 L4.30428082,8.1137037 C6.02311644,8.1137037 6.66318493,7.48388889 6.66318493,5.32703704 C6.66318493,3.17018519 6.02311644,2.54388889 4.30428082,2.54388889 L3.17876712,2.54388889 L3.17876712,8.1137037 Z" id="Shape" stroke="#F79127" fill="#F79127"></path>
                <path d="M12,4.63740741 C12,2.07944444 13.5390411,0 16.8688356,0 C20.1986301,0 21.7412671,2.07944444 21.7412671,4.63740741 L21.7412671,13.9861111 C21.7412671,16.5440741 20.202226,18.627037 16.8688356,18.627037 C13.5354452,18.627037 12,16.5264815 12,13.9861111 L12,4.63740741 Z M15.1931507,13.8946296 C15.1931507,15.2492593 15.6030822,15.9001852 16.8832192,15.9001852 C18.1633562,15.9001852 18.5768836,15.2492593 18.5768836,13.8946296 L18.5768836,4.71481481 C18.5768836,3.36018519 18.1669521,2.70925926 16.8832192,2.70925926 C15.5994863,2.70925926 15.1931507,3.36018519 15.1931507,4.71481481 L15.1931507,13.8946296 Z" id="Shape" stroke="#F79127" fill="#F79127"></path>
                <path d="M31.4078767,6.29462963 L31.4078767,4.88722222 C31.4078767,3.35666667 30.6886986,2.70574074 29.8688356,2.70574074 C28.5886986,2.70574074 28.1787671,3.35666667 28.1787671,4.7112963 L28.1787671,13.8946296 C28.1787671,15.2492593 28.5886986,15.9001852 29.8688356,15.9001852 C31.0231164,15.9001852 31.4078767,15.2492593 31.4078767,14.0705556 L31.4078767,11.875 L34.5866438,11.875 L34.5866438,13.9861111 C34.5866438,16.5440741 33.0476027,18.627037 29.8688356,18.627037 C26.5390411,18.627037 25,16.5440741 25,13.9861111 L25,4.63740741 C25,2.07944444 26.5390411,0 29.8688356,0 C33.0476027,0 34.5866438,2.25537037 34.5866438,4.96462963 L34.5866438,6.29462963 L31.4078767,6.29462963 Z" id="Shape" stroke="#F79127" fill="#F79127"></path>
                <polygon id="Shape" stroke="#F79127" fill="#F79127" points="37 18.0957407 37 0 40.1895548 0 40.1895548 6.68518519 40.2434932 6.68518519 43.5732877 0 46.7520548 0 43.3179795 6.74851852 47.1871575 18.1098148 43.9508562 18.1098148 41.3618151 9.68296296 41.3114726 9.68296296 40.1895548 11.6744444 40.1895548 18.0957407"></polygon>
                <path d="M49,18.0957407 L49,0 L53.5631849,0 C57.4827055,0 59.3166096,1.4812963 59.3166096,5.34111111 C59.3166096,9.20092593 57.497089,10.6857407 53.5631849,10.6857407 L52.1787671,10.6857407 L52.1787671,18.1098148 L49,18.0957407 Z M52.1787671,8.1137037 L53.4157534,8.1137037 C55.4905822,8.1137037 56.1306507,7.48388889 56.1306507,5.32703704 C56.1306507,3.17018519 55.4833904,2.54388889 53.4157534,2.54388889 L52.1859589,2.54388889 L52.1787671,8.1137037 Z" id="Shape" stroke="#FFFFFF" fill="#FFFFFF"></path>
                <polygon id="Shape" stroke="#FFFFFF" fill="#FFFFFF" points="61 18.0957407 61 0 69.5114726 0 69.5114726 2.70925926 64.1787671 2.70925926 64.1787671 7.36074074 68.2816781 7.36074074 68.2816781 10.07 64.1787671 10.07 64.1787671 15.3864815 69.8710616 15.3864815 69.8710616 18.0957407"></polygon>
                <polygon id="Shape" stroke="#FFFFFF" fill="#FFFFFF" points="84 18.0957407 84 0 87.1787671 0 87.1787671 6.68518519 87.2291096 6.68518519 90.5625 0 93.7412671 0 90.3071918 6.74851852 94.1763699 18.1098148 90.9400685 18.1098148 88.3510274 9.68296296 88.3006849 9.68296296 87.1715753 11.6885185 87.1715753 18.0957407"></polygon>
                <path d="M101.620034,4.69722222 C101.494178,3.14203704 100.638356,2.70925926 99.9191781,2.70925926 C98.8943493,2.70925926 98.3297945,3.36018519 98.3297945,4.48962963 C98.3297945,7.57185185 104.802397,9.0637037 104.802397,13.9685185 C104.802397,16.9557407 102.75274,18.6094444 99.7681507,18.6094444 C96.7835616,18.6094444 95.1294521,16.3012963 95,13.592037 L98.0241438,13.1662963 C98.1535959,14.9994444 98.8979452,15.9001852 99.922774,15.9001852 C101.023116,15.9001852 101.767466,15.3231481 101.767466,14.2464815 C101.767466,10.6575926 95.294863,9.70759259 95.294863,4.51425926 C95.294863,1.62907407 97.0928082,0 100.217637,0 C102.806678,0 104.345719,1.82962963 104.626199,4.38759259 L101.620034,4.69722222 Z" id="Shape" stroke="#FFFFFF" fill="#FFFFFF"></path>
                <polygon id="Shape" stroke="#FFFFFF" fill="#FFFFFF" points="74.2434932 18.3209259 71 18.3385185 74.4628425 0.0140740741 78.5585616 0 82.0070205 18.3209259 78.7455479 18.3209259 76.5340753 4.17648148"></polygon>
                <path d="M3.17876712,18.0957407 L0,18.0957407 L0,0 L4.45890411,0 C8.02243151,0 9.85273973,1.4812963 9.85273973,5.34111111 C9.85273973,8.25092593 8.6984589,9.42962963 7.62328767,9.91518519 L10.3166096,18.1168519 L7.08030822,18.1168519 L4.81849315,10.5942593 C4.27383593,10.6501562 3.72639407,10.6759996 3.17876712,10.6716667 L3.17876712,18.0957407 Z M3.17876712,8.1137037 L4.30428082,8.1137037 C6.02311644,8.1137037 6.66318493,7.48388889 6.66318493,5.32703704 C6.66318493,3.17018519 6.02311644,2.54388889 4.30428082,2.54388889 L3.17876712,2.54388889 L3.17876712,8.1137037 Z" id="Shape-Copy-9" stroke="#F79127" fill="#F79127"></path>
                <path d="M12,4.63740741 C12,2.07944444 13.5390411,0 16.8688356,0 C20.1986301,0 21.7412671,2.07944444 21.7412671,4.63740741 L21.7412671,13.9861111 C21.7412671,16.5440741 20.202226,18.627037 16.8688356,18.627037 C13.5354452,18.627037 12,16.5264815 12,13.9861111 L12,4.63740741 Z M15.1931507,13.8946296 C15.1931507,15.2492593 15.6030822,15.9001852 16.8832192,15.9001852 C18.1633562,15.9001852 18.5768836,15.2492593 18.5768836,13.8946296 L18.5768836,4.71481481 C18.5768836,3.36018519 18.1669521,2.70925926 16.8832192,2.70925926 C15.5994863,2.70925926 15.1931507,3.36018519 15.1931507,4.71481481 L15.1931507,13.8946296 Z" id="Shape-Copy-8" stroke="#F79127" fill="#F79127"></path>
                <path d="M31.4078767,6.29462963 L31.4078767,4.88722222 C31.4078767,3.35666667 30.6886986,2.70574074 29.8688356,2.70574074 C28.5886986,2.70574074 28.1787671,3.35666667 28.1787671,4.7112963 L28.1787671,13.8946296 C28.1787671,15.2492593 28.5886986,15.9001852 29.8688356,15.9001852 C31.0231164,15.9001852 31.4078767,15.2492593 31.4078767,14.0705556 L31.4078767,11.875 L34.5866438,11.875 L34.5866438,13.9861111 C34.5866438,16.5440741 33.0476027,18.627037 29.8688356,18.627037 C26.5390411,18.627037 25,16.5440741 25,13.9861111 L25,4.63740741 C25,2.07944444 26.5390411,0 29.8688356,0 C33.0476027,0 34.5866438,2.25537037 34.5866438,4.96462963 L34.5866438,6.29462963 L31.4078767,6.29462963 Z" id="Shape-Copy-7" stroke="#F79127" fill="#F79127"></path>
                <polygon id="Shape-Copy-6" stroke="#F79127" fill="#F79127" points="37 18.0957407 37 0 40.1895548 0 40.1895548 6.68518519 40.2434932 6.68518519 43.5732877 0 46.7520548 0 43.3179795 6.74851852 47.1871575 18.1098148 43.9508562 18.1098148 41.3618151 9.68296296 41.3114726 9.68296296 40.1895548 11.6744444 40.1895548 18.0957407"></polygon>
                <path d="M49,18.0957407 L49,0 L53.5631849,0 C57.4827055,0 59.3166096,1.4812963 59.3166096,5.34111111 C59.3166096,9.20092593 57.497089,10.6857407 53.5631849,10.6857407 L52.1787671,10.6857407 L52.1787671,18.1098148 L49,18.0957407 Z M52.1787671,8.1137037 L53.4157534,8.1137037 C55.4905822,8.1137037 56.1306507,7.48388889 56.1306507,5.32703704 C56.1306507,3.17018519 55.4833904,2.54388889 53.4157534,2.54388889 L52.1859589,2.54388889 L52.1787671,8.1137037 Z" id="Shape-Copy-5" stroke="#374355" fill="#374355"></path>
                <polygon id="Shape-Copy-4" stroke="#374355" fill="#374355" points="61 18.0957407 61 0 69.5114726 0 69.5114726 2.70925926 64.1787671 2.70925926 64.1787671 7.36074074 68.2816781 7.36074074 68.2816781 10.07 64.1787671 10.07 64.1787671 15.3864815 69.8710616 15.3864815 69.8710616 18.0957407"></polygon>
                <polygon id="Shape-Copy-3" stroke="#374355" fill="#374355" points="84 18.0957407 84 0 87.1787671 0 87.1787671 6.68518519 87.2291096 6.68518519 90.5625 0 93.7412671 0 90.3071918 6.74851852 94.1763699 18.1098148 90.9400685 18.1098148 88.3510274 9.68296296 88.3006849 9.68296296 87.1715753 11.6885185 87.1715753 18.0957407"></polygon>
                <path d="M101.620034,4.69722222 C101.494178,3.14203704 100.638356,2.70925926 99.9191781,2.70925926 C98.8943493,2.70925926 98.3297945,3.36018519 98.3297945,4.48962963 C98.3297945,7.57185185 104.802397,9.0637037 104.802397,13.9685185 C104.802397,16.9557407 102.75274,18.6094444 99.7681507,18.6094444 C96.7835616,18.6094444 95.1294521,16.3012963 95,13.592037 L98.0241438,13.1662963 C98.1535959,14.9994444 98.8979452,15.9001852 99.922774,15.9001852 C101.023116,15.9001852 101.767466,15.3231481 101.767466,14.2464815 C101.767466,10.6575926 95.294863,9.70759259 95.294863,4.51425926 C95.294863,1.62907407 97.0928082,0 100.217637,0 C102.806678,0 104.345719,1.82962963 104.626199,4.38759259 L101.620034,4.69722222 Z" id="Shape-Copy-2" stroke="#374355" fill="#374355"></path>
                <polygon id="Shape-Copy" stroke="#374355" fill="#374355" points="74.2434932 18.3209259 71 18.3385185 74.4628425 0.0140740741 78.5585616 0 82.0070205 18.3209259 78.7455479 18.3209259 76.5340753 4.17648148"></polygon>
            </g>
        </g>
    </g>
</svg>