<svg xmlns="http://www.w3.org/2000/svg" width="14" height="14" viewBox="0 0 14 14">
    <path fill="#B9C5D8" fill-rule="evenodd" d="M13.125 14H.875A.875.875 0 0 1 0 13.126V.874C0 .391.392 0 .875 0h12.25c.483 0 .875.391.875.874v12.252a.875.875 0 0 1-.875.874zm-6.708-1.167h1.166v-1.166H6.417v1.166zm3.33-5.561a.317.317 0 0 0 .168-.284c0-.12-.06-.222-.168-.283L5.179 4.128a.343.343 0 0 0-.34-.001.318.318 0 0 0-.172.285v5.153a.32.32 0 0 0 .171.286c.11.06.233.058.341-.003l4.568-2.576zm-5.664 5.561H5.25v-1.166H4.083v1.166zM2.917 1.167H1.75v1.166h1.167V1.167zm0 10.5H1.75v1.166h1.167v-1.166zm2.333-10.5H4.083v1.166H5.25V1.167zm2.333 0H6.417v1.166h1.166V1.167zm2.334 0H8.75v1.166h1.167V1.167zm0 10.5H8.75v1.166h1.167v-1.166zm2.333-10.5h-1.167v1.166h1.167V1.167zm0 10.5h-1.167v1.166h1.167v-1.166z"/>
</svg>
