<?xml version="1.0" encoding="UTF-8"?>
<svg width="9px" height="9px" viewBox="0 0 9 9" version="1.1" xmlns="http://www.w3.org/2000/svg" xmlns:xlink="http://www.w3.org/1999/xlink">
    <!-- Generator: Sketch 55.1 (78136) - https://sketchapp.com -->
    <title>Close Circle Icon</title>
    <desc>Created with Sketch.</desc>
    <g id="Symbols" stroke="none" stroke-width="1" fill="none" fill-rule="evenodd">
        <g id="Close-Circle-Icon-Light" fill="#3D4D65">
            <path d="M8.58210213,0.418017066 C8.02373764,-0.139339022 7.11914715,-0.139339022 6.56078267,0.418017066 L4.50043774,2.47833338 L2.44009282,0.418017066 C1.88172833,-0.139339022 0.977137845,-0.139339022 0.418773362,0.418017066 C-0.139591121,0.976373794 -0.139591121,1.88095172 0.418773362,2.43830781 L2.47911829,4.49962476 L0.418773362,6.55994107 C-0.139591121,7.11729716 -0.139591121,8.02287573 0.418773362,8.58123245 C0.977137845,9.13958918 1.88172833,9.13958918 2.44009282,8.58123245 L4.50043774,6.52091614 L6.56078267,8.58123245 C7.11914715,9.13958918 8.02373764,9.13958918 8.58110147,8.58123245 C9.13946595,8.02287573 9.13946595,7.11729716 8.58110147,6.55994107 L6.52075654,4.49962476 L8.58110147,2.43830781 C9.13946595,1.88095172 9.13946595,0.976373794 8.58210213,0.418017066 L8.58210213,0.418017066 Z" id="Close-Circle-Icon"></path>
        </g>
    </g>
</svg>