<?xml version="1.0" encoding="UTF-8"?>
<svg width="14px" height="14px" viewBox="0 0 14 14" version="1.1" xmlns="http://www.w3.org/2000/svg" xmlns:xlink="http://www.w3.org/1999/xlink">
    <!-- Generator: Sketch 55.1 (78136) - https://sketchapp.com -->
    <title>Video Icon</title>
    <desc>Created with Sketch.</desc>
    <g id="Symbols" stroke="none" stroke-width="1" fill="none" fill-rule="evenodd">
        <g id="Video-Icon-Normal-Copy" fill="#3D4D65">
            <path d="M13.125,14 L0.875,14 C0.392,14 0,13.608567 0,13.1255469 L0,0.874453102 C0,0.391432976 0.392,2.03392858e-13 0.875,2.03392858e-13 L13.125,2.03392858e-13 C13.608,2.03392858e-13 14,0.391432976 14,0.874453102 L14,13.1255469 C14,13.608567 13.608,14 13.125,14 L13.125,14 Z M6.41666667,12.8332847 L7.58333333,12.8332847 L7.58333333,11.6671528 L6.41666667,11.6671528 L6.41666667,12.8332847 L6.41666667,12.8332847 Z M9.74691667,7.27155298 C9.85483333,7.21088379 9.9155,7.1087962 9.9155,6.98804117 C9.9155,6.86845285 9.85483333,6.76578191 9.74691667,6.70511271 L5.17941667,4.12842202 C5.07091667,4.06716947 4.94725,4.06658611 4.83816667,4.12667194 C4.72908333,4.18675778 4.66666667,4.29001208 4.66666667,4.41193383 L4.66666667,9.56531522 C4.66666667,9.68665361 4.72908333,9.78990791 4.83816667,9.85057711 C4.94725,9.91007959 5.07091667,9.90949623 5.17941667,9.84824368 L9.74691667,7.27155298 L9.74691667,7.27155298 Z M4.08333333,12.8332847 L5.25,12.8332847 L5.25,11.6671528 L4.08333333,11.6671528 L4.08333333,12.8332847 L4.08333333,12.8332847 Z M2.91666667,1.16671528 L1.75,1.16671528 L1.75,2.3328472 L2.91666667,2.3328472 L2.91666667,1.16671528 L2.91666667,1.16671528 Z M2.91666667,11.6671528 L1.75,11.6671528 L1.75,12.8332847 L2.91666667,12.8332847 L2.91666667,11.6671528 L2.91666667,11.6671528 Z M5.25,1.16671528 L4.08333333,1.16671528 L4.08333333,2.3328472 L5.25,2.3328472 L5.25,1.16671528 L5.25,1.16671528 Z M7.58333333,1.16671528 L6.41666667,1.16671528 L6.41666667,2.3328472 L7.58333333,2.3328472 L7.58333333,1.16671528 L7.58333333,1.16671528 Z M9.91666667,1.16671528 L8.75,1.16671528 L8.75,2.3328472 L9.91666667,2.3328472 L9.91666667,1.16671528 L9.91666667,1.16671528 Z M9.91666667,11.6671528 L8.75,11.6671528 L8.75,12.8332847 L9.91666667,12.8332847 L9.91666667,11.6671528 L9.91666667,11.6671528 Z M12.25,1.16671528 L11.0833333,1.16671528 L11.0833333,2.3328472 L12.25,2.3328472 L12.25,1.16671528 L12.25,1.16671528 Z M12.25,11.6671528 L11.0833333,11.6671528 L11.0833333,12.8332847 L12.25,12.8332847 L12.25,11.6671528 L12.25,11.6671528 Z" id="Video-Icon"></path>
        </g>
    </g>
</svg>